<svg xmlns="http://www.w3.org/2000/svg" width="375" viewBox="0 0 375 375" height="375" version="1.0"><g fill="#FFF"><g><g><path d="M 0.460938 -7.621094 C 2.078125 -7.390625 3.3125 -7.777344 4.234375 -9.007812 C 4.695312 -9.546875 4.925781 -10.472656 4.925781 -11.78125 L 4.925781 -56.589844 L 13.242188 -56.589844 L 13.242188 -10.472656 C 13.242188 -7.390625 12.472656 -4.542969 10.546875 -2.464844 C 8.625 -0.386719 5.390625 0.847656 0.460938 0.539062 Z M 0.460938 -7.621094" transform="translate(29.05 202.53)"/></g></g></g><g fill="#FFF"><g><g><path d="M 3.078125 -56.589844 L 22.097656 -56.589844 L 22.097656 -48.042969 L 11.394531 -48.042969 L 11.394531 -33.183594 L 19.09375 -33.183594 L 19.09375 -24.097656 L 11.394531 -24.097656 L 11.394531 -8.546875 L 22.097656 -8.546875 L 22.097656 0 L 3.078125 0 Z M 3.078125 -56.589844" transform="translate(44.986 202.53)"/></g></g></g><g fill="#FFF"><g><g><path d="M 0.769531 0 L 9.316406 -56.589844 L 19.480469 -56.589844 L 28.027344 0 L 19.941406 0 L 18.402344 -11.550781 L 10.394531 -11.550781 L 8.855469 0 Z M 14.859375 -38.191406 L 14.628906 -39.652344 L 14.167969 -39.652344 L 13.9375 -38.191406 L 11.550781 -20.328125 L 17.246094 -20.328125 Z M 14.859375 -38.191406" transform="translate(68.623 202.53)"/></g></g></g><g fill="#FFF"><g><g><path d="M 11.855469 -29.488281 L 11.164062 -32.105469 L 10.703125 -32.105469 L 10.703125 0 L 3.078125 0 L 3.078125 -56.589844 L 10.472656 -56.589844 L 18.554688 -27.101562 L 19.25 -24.484375 L 19.710938 -24.484375 L 19.710938 -56.589844 L 27.332031 -56.589844 L 27.332031 0 L 19.941406 0 Z M 11.855469 -29.488281" transform="translate(97.418 202.53)"/></g></g></g><g fill="#FFF"><g><g><path d="M 3.078125 0 L 3.078125 -56.589844 L 9.625 -56.589844 C 17.324219 -56.589844 21.480469 -55.050781 23.714844 -50.738281 C 25.871094 -46.429688 26.179688 -39.34375 26.179688 -28.257812 C 26.179688 -17.167969 25.871094 -10.164062 23.714844 -5.851562 C 21.480469 -1.539062 17.324219 0 9.625 0 Z M 11.394531 -8.316406 C 14.242188 -8.316406 15.859375 -8.625 16.707031 -11.394531 C 17.09375 -12.703125 17.402344 -14.707031 17.476562 -17.402344 C 17.554688 -20.09375 17.554688 -23.714844 17.554688 -28.335938 C 17.554688 -32.953125 17.554688 -36.574219 17.476562 -39.265625 C 17.402344 -41.886719 17.09375 -43.886719 16.707031 -45.273438 C 15.859375 -47.96875 14.242188 -48.277344 11.394531 -48.277344 Z M 11.394531 -8.316406" transform="translate(127.83 202.53)"/></g></g></g><g fill="#FFF"><g><g><path d="M 17.941406 0 L 13.628906 -23.867188 L 11.394531 -23.867188 L 11.394531 0 L 3.078125 0 L 3.078125 -56.589844 L 11.394531 -56.589844 C 21.328125 -56.589844 25.5625 -50.96875 25.5625 -40.269531 C 25.5625 -34.648438 24.097656 -29.566406 20.941406 -27.410156 L 26.253906 0 Z M 11.394531 -31.566406 C 12.550781 -31.566406 14.089844 -31.722656 15.320312 -32.800781 C 16.554688 -33.878906 17.554688 -35.957031 17.554688 -39.960938 C 17.554688 -43.964844 16.554688 -46.121094 15.320312 -47.199219 C 14.089844 -48.277344 12.550781 -48.351562 11.394531 -48.351562 Z M 11.394531 -31.566406" transform="translate(156.471 202.53)"/></g></g></g><g fill="#FFF"><g><g><path d="M 3.078125 -56.589844 L 22.097656 -56.589844 L 22.097656 -48.042969 L 11.394531 -48.042969 L 11.394531 -33.183594 L 19.09375 -33.183594 L 19.09375 -24.097656 L 11.394531 -24.097656 L 11.394531 -8.546875 L 22.097656 -8.546875 L 22.097656 0 L 3.078125 0 Z M 3.078125 -56.589844" transform="translate(184.265 202.53)"/></g></g></g><g fill="#FFF"><g><g><path d="M 3.078125 -56.589844 L 11.394531 -56.589844 L 11.394531 -7.699219 L 22.40625 -7.699219 L 22.40625 0 L 3.078125 0 Z M 3.078125 -56.589844" transform="translate(219.759 202.53)"/></g></g></g><g fill="#FFF"><g><g><path d="M 3.078125 -56.589844 L 22.097656 -56.589844 L 22.097656 -48.042969 L 11.394531 -48.042969 L 11.394531 -33.183594 L 19.09375 -33.183594 L 19.09375 -24.097656 L 11.394531 -24.097656 L 11.394531 -8.546875 L 22.097656 -8.546875 L 22.097656 0 L 3.078125 0 Z M 3.078125 -56.589844" transform="translate(242.472 202.53)"/></g></g></g><g fill="#FFF"><g><g><path d="M 15.015625 0 L 8.546875 0 L 0.925781 -56.589844 L 8.625 -56.589844 L 11.933594 -27.179688 L 12.089844 -25.332031 L 12.703125 -25.332031 L 12.933594 -27.179688 L 16.476562 -56.589844 L 22.484375 -56.589844 L 26.023438 -27.179688 L 26.253906 -25.332031 L 26.871094 -25.332031 L 27.023438 -27.179688 L 30.335938 -56.589844 L 38.035156 -56.589844 L 30.414062 0 L 23.945312 0 L 20.09375 -26.792969 L 19.632812 -30.105469 L 19.324219 -30.105469 L 18.863281 -26.792969 Z M 15.015625 0" transform="translate(266.108 202.53)"/></g></g></g><g fill="#FFF"><g><g><path d="M 3.078125 -56.589844 L 11.394531 -56.589844 L 11.394531 0 L 3.078125 0 Z M 3.078125 -56.589844" transform="translate(305.066 202.53)"/></g></g></g><g fill="#FFF"><g><g><path d="M 16.863281 -41.421875 C 16.863281 -43.269531 16.785156 -45.351562 16.246094 -46.96875 C 15.707031 -48.507812 14.859375 -49.585938 13.550781 -49.585938 C 11.394531 -49.507812 10.703125 -47.273438 10.703125 -43.964844 C 10.703125 -42.039062 11.550781 -40.039062 12.78125 -37.882812 C 14.011719 -35.726562 15.628906 -33.492188 17.246094 -31.105469 C 19.171875 -28.257812 21.097656 -25.332031 22.558594 -22.484375 C 24.023438 -19.632812 25.023438 -16.707031 25.023438 -13.628906 C 25.023438 -9.855469 24.40625 -6.3125 22.636719 -3.695312 C 20.867188 -1.078125 18.015625 0.617188 13.472656 0.617188 C 8.160156 0.617188 5.160156 -1.386719 3.464844 -4.464844 C 1.769531 -7.546875 1.386719 -11.625 1.386719 -15.859375 L 9.546875 -16.632812 C 9.546875 -14.242188 9.625 -11.855469 10.242188 -10.085938 C 10.78125 -8.238281 11.703125 -7.007812 13.472656 -7.007812 C 15.9375 -7.007812 16.863281 -9.625 16.863281 -13.242188 C 16.863281 -15.089844 15.9375 -17.246094 14.707031 -19.480469 C 14.011719 -20.558594 13.320312 -21.710938 12.550781 -22.867188 C 10.933594 -25.175781 9.164062 -27.796875 7.316406 -30.644531 C 5.464844 -33.492188 4.082031 -36.417969 3.234375 -39.421875 C 2.773438 -40.882812 2.539062 -42.425781 2.539062 -43.964844 C 2.539062 -47.042969 3.234375 -50.355469 5.003906 -52.894531 C 6.777344 -55.359375 9.46875 -57.128906 13.398438 -57.207031 C 18.402344 -57.285156 21.328125 -55.207031 22.945312 -52.203125 C 24.5625 -49.121094 25.023438 -45.351562 25.023438 -42.191406 Z M 16.863281 -41.421875" transform="translate(319.54 202.53)"/></g></g></g></svg>