<svg xmlns="http://www.w3.org/2000/svg" width="375" viewBox="0 0 375 375" height="375" version="1.0"><path fill="#FFF" d="M-37.5 -37.5H412.5V412.5H-37.5z"/><path fill="#FFF" d="M-37.5 -37.5H412.5V412.5H-37.5z"/><path fill="#2B2B2B" d="M-37.5 -37.5H412.5V412.5H-37.5z"/><g fill="#EEC35B"><g><g><path d="M 6.839844 -18.519531 C 8.847656 -12.269531 9.4375 -11.207031 12.503906 -6.722656 C 14.980469 -2.949219 23.472656 4.601562 24.890625 4.363281 C 25.363281 4.363281 26.304688 4.71875 26.894531 5.425781 C 27.957031 6.605469 30.550781 7.195312 34.328125 7.429688 C 37.394531 7.667969 47.773438 5.660156 50.015625 4.363281 C 51.078125 3.773438 52.964844 2.359375 54.378906 1.0625 C 55.675781 -0.355469 56.976562 -1.414062 57.09375 -1.535156 C 57.566406 -1.535156 61.574219 -6.488281 61.339844 -6.605469 C 61.101562 -6.605469 62.402344 -8.492188 64.050781 -10.734375 C 67.238281 -15.21875 68.417969 -17.457031 72.425781 -27.367188 C 75.847656 -35.625 77.265625 -39.871094 77.027344 -39.753906 C 76.675781 -39.753906 75.496094 -37.863281 75.496094 -37.394531 C 75.613281 -36.804688 71.011719 -27.957031 69.125 -24.890625 C 67.710938 -22.53125 67.589844 -22.53125 68.179688 -24.183594 C 68.535156 -25.242188 69.125 -26.421875 69.359375 -26.777344 C 71.011719 -28.78125 75.023438 -38.101562 78.324219 -46.832031 C 77.5 -47.066406 76.675781 -47.300781 75.964844 -47.773438 C 72.191406 -36.566406 67.238281 -26.070312 62.046875 -18.164062 C 60.277344 -15.453125 57.683594 -12.621094 56.503906 -12.269531 C 55.914062 -12.03125 55.207031 -11.324219 54.734375 -10.851562 C 52.847656 -8.257812 52.964844 -9.320312 54.96875 -12.269531 C 56.265625 -14.15625 57.683594 -15.925781 58.273438 -16.160156 C 58.742188 -16.394531 59.097656 -16.867188 59.097656 -17.222656 C 59.097656 -17.574219 59.332031 -17.695312 59.570312 -17.457031 C 60.042969 -17.222656 60.042969 -17.339844 59.804688 -17.8125 C 59.453125 -18.164062 59.6875 -18.753906 60.160156 -18.875 C 61.222656 -19.464844 66.175781 -28.429688 65.703125 -28.898438 C 65.46875 -29.019531 64.171875 -27.128906 62.636719 -24.773438 C 59.453125 -19.582031 58.625 -18.519531 58.035156 -19.816406 C 57.800781 -20.289062 58.507812 -22.292969 59.921875 -24.773438 C 62.871094 -29.84375 62.871094 -31.496094 59.921875 -26.660156 C 58.742188 -24.652344 57.566406 -23.238281 57.445312 -23.355469 C 56.855469 -23.710938 55.796875 -22.058594 56.265625 -21.585938 C 56.386719 -21.46875 55.675781 -20.171875 54.734375 -18.753906 C 53.671875 -17.457031 52.136719 -15.335938 51.3125 -14.15625 C 50.367188 -12.976562 49.070312 -11.558594 48.246094 -10.96875 C 47.300781 -10.378906 46.710938 -9.671875 46.710938 -9.320312 C 46.832031 -9.082031 46.59375 -8.847656 46.242188 -8.730469 C 45.886719 -8.730469 44.117188 -7.550781 42.347656 -6.25 C 40.460938 -4.71875 37.394531 -2.949219 35.507812 -2.125 C 30.433594 -0.117188 28.78125 -0.945312 25.832031 -7.195312 C 23.238281 -12.859375 22.175781 -17.695312 20.171875 -33.027344 C 19.34375 -39.871094 18.875 -45.414062 18.992188 -48.246094 C 19.109375 -50.605469 18.992188 -55.324219 18.992188 -58.742188 C 18.875 -62.164062 18.992188 -65.113281 19.226562 -65.46875 C 19.464844 -65.941406 19.582031 -67.355469 19.34375 -68.652344 C 19.226562 -69.949219 19.34375 -74.195312 19.582031 -77.972656 C 19.816406 -81.746094 20.171875 -86.347656 20.289062 -88.234375 C 20.40625 -90.121094 20.644531 -92.007812 20.644531 -92.597656 C 21.234375 -94.957031 20.996094 -98.023438 20.289062 -98.378906 C 19.816406 -98.496094 19.933594 -98.96875 20.761719 -99.914062 C 21.585938 -100.972656 21.703125 -101.917969 21.46875 -104.511719 C 21.351562 -106.28125 21.351562 -107.933594 21.234375 -108.167969 C 21.234375 -108.40625 21.585938 -109.113281 21.941406 -109.703125 C 22.292969 -110.292969 22.648438 -112.652344 22.53125 -115.128906 C 22.53125 -117.488281 22.765625 -120.203125 23.003906 -121.261719 C 23.355469 -122.324219 23.59375 -123.859375 23.472656 -124.800781 C 23.355469 -125.628906 23.472656 -128.105469 23.710938 -130.226562 C 24.0625 -132.351562 24.535156 -135.890625 24.890625 -138.25 C 25.597656 -144.265625 27.957031 -157.003906 28.898438 -160.191406 C 29.609375 -162.429688 29.609375 -163.375 29.019531 -165.851562 C 28.308594 -168.683594 28.074219 -169.15625 25.125 -171.394531 C 22.414062 -173.519531 21.941406 -173.636719 20.289062 -173.164062 C 19.34375 -172.8125 18.164062 -172.8125 17.695312 -173.046875 C 17.222656 -173.402344 16.515625 -173.164062 15.570312 -172.339844 C 14.746094 -171.632812 13.800781 -171.160156 13.449219 -171.277344 C 13.09375 -171.277344 12.859375 -171.160156 12.859375 -171.042969 C 12.859375 -170.925781 12.503906 -168.328125 12.03125 -165.261719 C 11.441406 -162.195312 11.089844 -159.128906 10.96875 -158.421875 C 10.851562 -156.53125 10.378906 -152.875 9.910156 -150.871094 C 9.554688 -149.691406 9.199219 -146.152344 8.730469 -142.730469 C 8.492188 -139.191406 8.019531 -135.300781 7.785156 -133.648438 C 7.550781 -132.234375 7.195312 -129.167969 7.078125 -127.042969 C 6.960938 -125.039062 6.722656 -121.734375 6.488281 -119.847656 C 6.25 -117.960938 6.132812 -115.835938 6.25 -115.011719 C 6.371094 -114.304688 6.132812 -113.59375 6.015625 -113.59375 C 5.78125 -113.59375 5.425781 -111.355469 5.191406 -108.757812 C 5.074219 -106.046875 4.71875 -102.625 4.484375 -101.089844 C 4.363281 -99.558594 4.128906 -97.199219 4.128906 -96.136719 C 4.128906 -94.839844 3.65625 -89.414062 3.183594 -83.871094 C 1.652344 -63.699219 1.769531 -51.3125 3.65625 -35.269531 C 4.953125 -25.480469 5.425781 -22.882812 6.839844 -18.519531 Z M 14.628906 -93.070312 C 14.628906 -91.890625 14.390625 -90.476562 14.15625 -90.003906 C 13.917969 -89.296875 13.917969 -89.648438 13.917969 -91.183594 C 13.917969 -92.363281 14.15625 -93.777344 14.390625 -94.25 C 14.628906 -94.957031 14.628906 -94.484375 14.628906 -93.070312 Z M 13.328125 -36.332031 C 13.449219 -35.859375 13.566406 -35.152344 13.449219 -34.796875 C 13.449219 -34.328125 13.210938 -34.679688 13.210938 -35.507812 C 13.09375 -36.332031 13.09375 -36.6875 13.328125 -36.332031 Z M 13.09375 -40.460938 C 12.859375 -40.34375 12.621094 -41.402344 12.621094 -42.703125 C 12.386719 -46.59375 12.621094 -46.949219 13.09375 -43.644531 C 13.328125 -41.875 13.328125 -40.460938 13.09375 -40.460938 Z M 13.683594 -32.910156 C 13.917969 -32.320312 14.039062 -31.378906 13.917969 -30.789062 C 13.917969 -30.199219 13.683594 -30.667969 13.566406 -31.847656 C 13.449219 -33.027344 13.566406 -33.5 13.683594 -32.910156 Z M 15.097656 -99.203125 C 14.980469 -98.734375 14.863281 -99.085938 14.746094 -99.914062 C 14.628906 -100.738281 14.746094 -101.089844 14.863281 -100.738281 C 15.097656 -100.265625 15.097656 -99.558594 15.097656 -99.203125 Z M 15.335938 -103.570312 C 14.980469 -102.980469 14.863281 -103.214844 14.980469 -104.277344 C 15.097656 -105.101562 15.335938 -105.457031 15.453125 -104.984375 C 15.6875 -104.511719 15.570312 -103.921875 15.335938 -103.570312 Z M 16.277344 -56.148438 C 16.160156 -56.503906 16.394531 -56.855469 16.632812 -56.976562 C 16.984375 -56.976562 17.222656 -56.855469 17.222656 -56.738281 C 17.222656 -56.503906 16.984375 -56.265625 16.75 -56.03125 C 16.515625 -55.796875 16.277344 -55.914062 16.277344 -56.148438 Z M 17.8125 -31.023438 C 17.105469 -36.804688 16.75 -41.640625 16.867188 -41.757812 C 17.105469 -41.875 17.574219 -37.746094 18.164062 -32.4375 C 19.464844 -19.226562 19.226562 -18.402344 17.8125 -31.023438 Z M 17.8125 -128.222656 C 17.929688 -127.75 18.046875 -127.042969 17.929688 -126.6875 C 17.8125 -126.21875 17.695312 -126.570312 17.574219 -127.398438 C 17.457031 -128.222656 17.574219 -128.578125 17.8125 -128.222656 Z M 17.457031 -123.386719 C 17.695312 -123.621094 17.8125 -123.386719 17.8125 -122.796875 C 17.457031 -121.734375 17.222656 -121.5 17.105469 -122.324219 C 17.105469 -122.679688 17.222656 -123.148438 17.457031 -123.386719 Z M 17.105469 -121.5 L 17.105469 -118.667969 C 17.222656 -117.132812 17.105469 -115.484375 16.867188 -115.011719 C 16.394531 -113.476562 16.394531 -114.894531 16.75 -118.3125 Z M 16.160156 -136.953125 C 16.632812 -137.070312 16.75 -136.597656 16.515625 -134.828125 C 16.394531 -133.53125 16.160156 -132.234375 16.042969 -131.878906 C 15.925781 -131.527344 15.804688 -130.226562 15.925781 -129.046875 C 15.925781 -127.867188 15.804688 -125.15625 15.453125 -123.148438 C 15.21875 -121.027344 14.980469 -118.195312 14.863281 -116.898438 C 14.863281 -115.484375 14.628906 -112.414062 14.273438 -110.058594 C 13.917969 -107.578125 13.566406 -104.160156 13.449219 -102.507812 C 12.621094 -91.183594 11.914062 -83.042969 11.679688 -82.570312 C 11.558594 -82.101562 11.441406 -81.15625 11.441406 -80.332031 C 11.558594 -79.503906 11.324219 -75.257812 11.089844 -71.011719 C 10.96875 -66.765625 10.617188 -61.339844 10.5 -58.980469 C 10.261719 -52.019531 11.441406 -35.152344 12.859375 -24.773438 C 13.683594 -19.464844 14.273438 -15.21875 14.15625 -15.21875 C 13.683594 -15.21875 11.796875 -23.710938 10.5 -32.558594 C 8.964844 -42.9375 8.964844 -43.644531 9.671875 -44.707031 C 10.378906 -45.414062 10.378906 -45.769531 9.910156 -46.003906 C 8.257812 -46.476562 8.257812 -58.152344 9.789062 -82.335938 C 10.5 -93.304688 11.679688 -105.21875 13.566406 -121.027344 C 14.039062 -125.15625 14.628906 -129.875 14.746094 -131.40625 C 15.21875 -135.417969 15.570312 -136.714844 16.160156 -136.953125 Z M 5.308594 -67.828125 C 5.308594 -69.714844 5.308594 -71.835938 5.308594 -72.664062 C 5.191406 -73.371094 5.308594 -74.078125 5.660156 -74.078125 C 5.898438 -74.078125 5.898438 -74.667969 5.660156 -75.496094 C 5.542969 -76.203125 5.542969 -77.265625 5.78125 -77.734375 C 5.898438 -78.207031 6.015625 -80.09375 5.78125 -81.980469 C 5.425781 -86.347656 5.542969 -90.121094 6.132812 -89.765625 C 6.488281 -89.648438 6.722656 -90.476562 6.839844 -91.65625 C 6.960938 -92.714844 6.839844 -93.777344 6.605469 -93.777344 C 6.015625 -94.015625 6.371094 -96.609375 7.195312 -97.433594 C 7.550781 -98.023438 7.667969 -98.851562 7.429688 -99.558594 C 7.195312 -100.148438 7.195312 -100.855469 7.429688 -100.855469 C 7.785156 -100.855469 7.902344 -101.445312 7.550781 -102.035156 C 7.429688 -102.742188 7.429688 -103.332031 7.785156 -103.332031 C 8.257812 -103.449219 8.140625 -103.570312 7.667969 -103.804688 C 7.195312 -104.160156 7.078125 -104.984375 7.429688 -107.460938 C 7.667969 -109.230469 8.019531 -110.644531 8.375 -110.527344 C 8.847656 -110.175781 9.320312 -112.535156 8.730469 -113.242188 C 8.609375 -113.476562 8.730469 -114.421875 8.964844 -115.246094 C 9.082031 -116.074219 9.199219 -117.371094 9.199219 -118.078125 C 9.082031 -118.667969 9.199219 -119.613281 9.4375 -119.964844 C 9.789062 -120.4375 10.027344 -122.324219 10.144531 -124.449219 C 10.261719 -126.453125 10.617188 -129.285156 10.851562 -130.699219 C 11.207031 -132.824219 11.089844 -133.648438 10.617188 -134.238281 C 10.144531 -134.710938 10.027344 -135.0625 10.378906 -135.417969 C 10.734375 -135.652344 10.96875 -135.535156 10.96875 -135.0625 C 11.089844 -134.472656 11.207031 -134.59375 11.441406 -135.183594 C 11.679688 -135.773438 11.679688 -136.363281 11.558594 -136.597656 C 11.441406 -136.832031 11.558594 -138.367188 12.03125 -140.019531 C 12.503906 -141.789062 13.09375 -144.5 13.449219 -146.152344 C 13.800781 -147.804688 14.390625 -149.21875 14.628906 -149.21875 C 14.863281 -149.335938 14.980469 -148.867188 14.863281 -148.394531 C 14.746094 -147.921875 14.507812 -146.269531 14.390625 -144.855469 C 14.273438 -143.320312 14.039062 -141.550781 13.800781 -140.84375 C 13.683594 -140.136719 13.566406 -138.722656 13.566406 -137.660156 C 13.449219 -136.714844 13.09375 -132.824219 12.621094 -129.285156 C 12.269531 -125.628906 11.796875 -121.734375 11.679688 -120.554688 C 11.558594 -119.257812 11.324219 -116.191406 10.96875 -113.59375 C 10.617188 -111 10.261719 -106.636719 10.027344 -103.6875 C 9.910156 -100.738281 9.671875 -97.671875 9.4375 -96.84375 C 9.320312 -95.902344 9.082031 -94.015625 9.082031 -92.714844 C 9.082031 -91.300781 8.964844 -89.886719 8.964844 -89.648438 C 8.964844 -89.179688 8.847656 -87.527344 8.609375 -85.875 C 8.492188 -84.105469 8.257812 -81.511719 8.019531 -80.210938 C 7.785156 -78.796875 7.667969 -77.144531 7.785156 -76.4375 C 7.785156 -75.847656 7.785156 -74.433594 7.550781 -73.371094 C 7.195312 -70.65625 6.960938 -58.273438 7.078125 -51.078125 C 7.195312 -47.65625 7.785156 -40.105469 8.375 -34.089844 C 9.199219 -26.539062 9.320312 -23.003906 9.082031 -22.414062 C 8.609375 -21.824219 8.492188 -22.058594 8.609375 -23.59375 C 8.730469 -24.773438 8.375 -26.070312 8.140625 -26.421875 C 7.785156 -26.777344 6.960938 -30.667969 6.371094 -35.152344 C 5.78125 -39.515625 5.425781 -42.820312 5.660156 -42.464844 C 5.898438 -42.113281 5.898438 -42.820312 5.542969 -44.234375 C 5.074219 -46.359375 4.835938 -58.625 5.308594 -67.828125 Z M 5.308594 -67.828125" transform="translate(149.05 254.771)"/></g></g></g><g fill="#FFF"><g><g><path d="M 3.199219 -58.796875 L 11.839844 -58.796875 L 11.839844 -8 L 23.277344 -8 L 23.277344 0 L 3.199219 0 Z M 3.199219 -58.796875" transform="translate(121.944 205.23)"/></g></g></g><g fill="#FFF"><g><g><path d="M 3.199219 -58.796875 L 22.957031 -58.796875 L 22.957031 -49.917969 L 11.839844 -49.917969 L 11.839844 -34.476562 L 19.839844 -34.476562 L 19.839844 -25.039062 L 11.839844 -25.039062 L 11.839844 -8.878906 L 22.957031 -8.878906 L 22.957031 0 L 3.199219 0 Z M 3.199219 -58.796875" transform="translate(145.541 205.23)"/></g></g></g><g fill="#FFF"><g><g><path d="M 15.597656 0 L 8.878906 0 L 0.960938 -58.796875 L 8.960938 -58.796875 L 12.398438 -28.238281 L 12.558594 -26.316406 L 13.199219 -26.316406 L 13.4375 -28.238281 L 17.117188 -58.796875 L 23.359375 -58.796875 L 27.039062 -28.238281 L 27.277344 -26.316406 L 27.917969 -26.316406 L 28.078125 -28.238281 L 31.519531 -58.796875 L 39.515625 -58.796875 L 31.597656 0 L 24.878906 0 L 20.878906 -27.839844 L 20.398438 -31.277344 L 20.078125 -31.277344 L 19.597656 -27.839844 Z M 15.597656 0" transform="translate(170.099 205.23)"/></g></g></g><g fill="#FFF"><g><g><path d="M 3.199219 -58.796875 L 11.839844 -58.796875 L 11.839844 0 L 3.199219 0 Z M 3.199219 -58.796875" transform="translate(210.575 205.23)"/></g></g></g><g fill="#FFF"><g><g><path d="M 17.519531 -43.039062 C 17.519531 -44.957031 17.4375 -47.117188 16.878906 -48.796875 C 16.320312 -50.398438 15.4375 -51.515625 14.078125 -51.515625 C 11.839844 -51.4375 11.121094 -49.117188 11.121094 -45.675781 C 11.121094 -43.675781 12 -41.597656 13.277344 -39.359375 C 14.558594 -37.117188 16.238281 -34.796875 17.917969 -32.316406 C 19.917969 -29.359375 21.917969 -26.316406 23.4375 -23.359375 C 24.957031 -20.398438 26 -17.359375 26 -14.160156 C 26 -10.238281 25.359375 -6.558594 23.519531 -3.839844 C 21.679688 -1.121094 18.71875 0.640625 14 0.640625 C 8.480469 0.640625 5.359375 -1.441406 3.601562 -4.640625 C 1.839844 -7.839844 1.441406 -12.078125 1.441406 -16.480469 L 9.917969 -17.277344 C 9.917969 -14.800781 10 -12.320312 10.640625 -10.480469 C 11.199219 -8.558594 12.160156 -7.28125 14 -7.28125 C 16.558594 -7.28125 17.519531 -10 17.519531 -13.757812 C 17.519531 -15.679688 16.558594 -17.917969 15.277344 -20.238281 C 14.558594 -21.359375 13.839844 -22.558594 13.039062 -23.757812 C 11.359375 -26.160156 9.519531 -28.878906 7.597656 -31.839844 C 5.679688 -34.796875 4.238281 -37.835938 3.359375 -40.957031 C 2.878906 -42.476562 2.640625 -44.078125 2.640625 -45.675781 C 2.640625 -48.875 3.359375 -52.316406 5.199219 -54.957031 C 7.039062 -57.515625 9.839844 -59.355469 13.917969 -59.4375 C 19.117188 -59.515625 22.160156 -57.355469 23.839844 -54.238281 C 25.519531 -51.035156 26 -47.117188 26 -43.835938 Z M 17.519531 -43.039062" transform="translate(225.614 205.23)"/></g></g></g></svg>